<svg width="134" height="48" viewBox="0 0 134 48" fill="none" xmlns="http://www.w3.org/2000/svg">
<path fill-rule="evenodd" clip-rule="evenodd" d="M133.5 24C133.5 27.1101 131.742 30.14 128.412 32.9603C125.084 35.7788 120.238 38.3395 114.208 40.4999C102.15 44.819 85.4596 47.5 67 47.5C48.5404 47.5 31.8501 44.819 19.7925 40.4999C13.7615 38.3395 8.91629 35.7788 5.58833 32.9603C2.25817 30.14 0.5 27.1101 0.5 24C0.5 20.8899 2.25817 17.86 5.58833 15.0397C8.91629 12.2212 13.7615 9.66049 19.7925 7.50015C31.8501 3.18101 48.5404 0.5 67 0.5C85.4596 0.5 102.15 3.18101 114.208 7.50015C120.238 9.66049 125.084 12.2212 128.412 15.0397C131.742 17.86 133.5 20.8899 133.5 24ZM134 24C134 37.2548 104.003 48 67 48C29.9969 48 0 37.2548 0 24C0 10.7452 29.9969 0 67 0C104.003 0 134 10.7452 134 24ZM36.4844 19.672C36.143 19.5333 35.6577 19.464 35.0284 19.464C34.4097 19.464 33.823 19.5707 33.2684 19.784C32.7244 19.9867 32.2817 20.3067 31.9404 20.744C31.6097 21.1707 31.4444 21.72 31.4444 22.392C31.4444 22.9787 31.5724 23.4853 31.8284 23.912C32.095 24.3387 32.447 24.7173 32.8844 25.048C33.3217 25.3787 33.791 25.7093 34.2924 26.04C34.7617 26.3387 35.1724 26.632 35.5244 26.92C35.887 27.208 36.1697 27.5173 36.3724 27.848C36.5857 28.1787 36.6924 28.568 36.6924 29.016C36.6924 29.4107 36.6017 29.7413 36.4204 30.008C36.239 30.2747 35.999 30.4773 35.7004 30.616C35.4124 30.744 35.0817 30.808 34.7084 30.808C34.0257 30.808 33.4764 30.6213 33.0604 30.248C32.655 29.8747 32.351 29.384 32.1484 28.776C31.9564 28.1573 31.839 27.496 31.7964 26.792H31.4284C31.4284 27.6347 31.423 28.3333 31.4124 28.888C31.4124 29.432 31.407 29.8747 31.3964 30.216C31.3964 30.5573 31.3857 30.856 31.3644 31.112H31.7324C31.7644 30.8773 31.8017 30.7013 31.8444 30.584C31.8977 30.4667 31.9777 30.408 32.0844 30.408C32.2124 30.408 32.3937 30.4827 32.6284 30.632C32.895 30.7707 33.2257 30.904 33.6204 31.032C34.015 31.16 34.543 31.224 35.2044 31.224C35.919 31.224 36.575 31.112 37.1724 30.888C37.7697 30.6533 38.2497 30.3067 38.6124 29.848C38.9857 29.3893 39.1724 28.808 39.1724 28.104C39.1724 27.528 39.0497 27.032 38.8044 26.616C38.559 26.2 38.2337 25.8267 37.8284 25.496C37.423 25.1653 36.9644 24.8347 36.4524 24.504C35.8657 24.0987 35.3644 23.752 34.9484 23.464C34.543 23.176 34.2337 22.8827 34.0204 22.584C33.807 22.2747 33.7004 21.9067 33.7004 21.48C33.7004 20.968 33.8657 20.568 34.1964 20.28C34.527 19.992 34.9484 19.848 35.4604 19.848C36.0257 19.848 36.5004 20.0187 36.8844 20.36C37.279 20.6907 37.583 21.1173 37.7964 21.64C38.0097 22.1627 38.1377 22.7013 38.1804 23.256H38.5484V21.448C38.559 20.9893 38.5697 20.6213 38.5804 20.344C38.6017 20.056 38.6177 19.8107 38.6284 19.608H38.2604C38.2284 19.8427 38.1857 20.0187 38.1324 20.136C38.0897 20.2533 38.015 20.312 37.9084 20.312C37.8337 20.312 37.7537 20.296 37.6684 20.264C37.5937 20.2213 37.4924 20.1627 37.3644 20.088C37.119 19.9387 36.8257 19.8 36.4844 19.672ZM43.3664 23.992V18.488C43.0357 18.5627 42.673 18.6213 42.2784 18.664C41.8837 18.696 41.4677 18.712 41.0304 18.712C40.7104 18.712 40.3797 18.696 40.0384 18.664V19C40.433 19 40.6997 19.1173 40.8384 19.352C40.9877 19.576 41.0624 19.928 41.0624 20.408V29.512C41.0624 29.96 40.9824 30.264 40.8224 30.424C40.673 30.584 40.4117 30.664 40.0384 30.664V31C40.2517 30.9893 40.5664 30.9787 40.9824 30.968C41.409 30.9467 41.8304 30.936 42.2464 30.936C42.6304 30.936 43.009 30.9467 43.3824 30.968C43.7557 30.9787 44.0384 30.9893 44.2304 31V30.664C43.9104 30.664 43.6864 30.584 43.5584 30.424C43.4304 30.264 43.3664 29.96 43.3664 29.512V25.048C43.3664 24.6853 43.4357 24.3653 43.5744 24.088C43.7237 23.8107 43.9157 23.5973 44.1504 23.448C44.3957 23.288 44.6624 23.208 44.9504 23.208C45.217 23.208 45.4197 23.2667 45.5584 23.384C45.7077 23.4907 45.809 23.6453 45.8624 23.848C45.9157 24.04 45.9424 24.2693 45.9424 24.536V29.512C45.9424 29.96 45.8784 30.264 45.7504 30.424C45.6224 30.584 45.3984 30.664 45.0784 30.664V31C45.2704 30.9893 45.5584 30.9787 45.9424 30.968C46.337 30.9467 46.7424 30.936 47.1584 30.936C47.5424 30.936 47.937 30.9467 48.3424 30.968C48.7584 30.9787 49.0677 30.9893 49.2704 31V30.664C48.897 30.664 48.6304 30.584 48.4704 30.424C48.321 30.264 48.2464 29.96 48.2464 29.512V25.208C48.2464 24.664 48.2037 24.232 48.1184 23.912C48.0437 23.592 47.9157 23.3307 47.7344 23.128C47.5744 22.936 47.3557 22.7867 47.0784 22.68C46.801 22.5627 46.433 22.504 45.9744 22.504C45.409 22.504 44.897 22.616 44.4384 22.84C43.9904 23.0533 43.633 23.4373 43.3664 23.992ZM56.0288 22.936C55.4421 22.648 54.7594 22.504 53.9808 22.504C53.2234 22.504 52.5461 22.648 51.9487 22.936C51.3621 23.224 50.8981 23.688 50.5568 24.328C50.2261 24.968 50.0607 25.816 50.0607 26.872C50.0607 27.928 50.2261 28.776 50.5568 29.416C50.8981 30.0453 51.3621 30.504 51.9487 30.792C52.5461 31.08 53.2234 31.224 53.9808 31.224C54.7594 31.224 55.4421 31.08 56.0288 30.792C56.6154 30.504 57.0741 30.0453 57.4048 29.416C57.7354 28.776 57.9007 27.928 57.9007 26.872C57.9007 25.816 57.7354 24.968 57.4048 24.328C57.0741 23.688 56.6154 23.224 56.0288 22.936ZM52.9087 23.784C53.1968 23.144 53.5541 22.824 53.9808 22.824C54.4181 22.824 54.7754 23.144 55.0527 23.784C55.3408 24.4133 55.4847 25.4427 55.4847 26.872C55.4847 28.3013 55.3408 29.3307 55.0527 29.96C54.7754 30.5893 54.4181 30.904 53.9808 30.904C53.5541 30.904 53.1968 30.5893 52.9087 29.96C52.6208 29.3307 52.4767 28.3013 52.4767 26.872C52.4767 25.4427 52.6208 24.4133 52.9087 23.784ZM62.1636 24.0203V22.552C61.833 22.6267 61.4703 22.6853 61.0756 22.728C60.681 22.76 60.265 22.776 59.8276 22.776C59.5076 22.776 59.177 22.76 58.8356 22.728V23.064C59.2196 23.064 59.4863 23.1813 59.6356 23.416C59.785 23.64 59.8596 23.992 59.8596 24.472V32.472C59.8596 32.8987 59.785 33.1867 59.6356 33.336C59.497 33.4853 59.2516 33.56 58.8996 33.56V33.896C59.0916 33.8853 59.3743 33.8693 59.7476 33.848C60.1316 33.8373 60.521 33.832 60.9156 33.832C61.4596 33.832 61.9716 33.8373 62.4516 33.848C62.9423 33.8693 63.3263 33.8853 63.6036 33.896V33.56C63.1556 33.56 62.8036 33.4747 62.5476 33.304C62.2916 33.144 62.1636 32.8133 62.1636 32.312V30.7086C62.3041 30.8256 62.4695 30.9227 62.6596 31C63.001 31.1493 63.3796 31.224 63.7956 31.224C64.361 31.224 64.8676 31.1227 65.3156 30.92C65.7743 30.7173 66.1636 30.4187 66.4836 30.024C66.8143 29.6187 67.065 29.1227 67.2356 28.536C67.417 27.9493 67.5076 27.2667 67.5076 26.488C67.5076 25.6027 67.3796 24.8667 67.1236 24.28C66.8676 23.6827 66.5263 23.24 66.0996 22.952C65.673 22.6533 65.1876 22.504 64.6436 22.504C64.025 22.504 63.481 22.664 63.0116 22.984C62.6427 23.2328 62.36 23.5782 62.1636 24.0203ZM62.1636 24.5702C62.2428 24.1825 62.4028 23.8725 62.6436 23.64C62.9636 23.3413 63.3156 23.192 63.6996 23.192C63.9876 23.192 64.233 23.304 64.4356 23.528C64.6383 23.752 64.7983 24.1253 64.9156 24.648C65.033 25.1707 65.0916 25.8907 65.0916 26.808C65.0916 27.6293 65.0276 28.3387 64.8996 28.936C64.7823 29.5227 64.585 29.9813 64.3076 30.312C64.0303 30.632 63.6516 30.792 63.1716 30.792C62.9156 30.792 62.6863 30.7387 62.4836 30.632C62.359 30.5627 62.2523 30.4755 62.1636 30.3703V24.5702ZM82.9317 19.992V19.672C82.7611 19.6827 82.5478 19.6933 82.2917 19.704C82.0464 19.7147 81.7958 19.72 81.5397 19.72C81.2517 19.72 80.9424 19.7147 80.6117 19.704C80.2811 19.6933 80.0144 19.6827 79.8118 19.672V19.992C80.2811 20.0347 80.6224 20.1253 80.8358 20.264C81.0598 20.4027 81.2038 20.632 81.2678 20.952C81.3317 21.2613 81.3638 21.7093 81.3638 22.296V27.304L75.1718 19.672C74.9798 19.6827 74.7664 19.6933 74.5318 19.704C74.2971 19.7147 74.0518 19.72 73.7958 19.72C73.5504 19.72 73.2998 19.7147 73.0437 19.704C72.7878 19.6933 72.5744 19.6827 72.4037 19.672V19.992C72.7344 20.0027 72.9851 20.0453 73.1557 20.12C73.3371 20.184 73.4544 20.312 73.5078 20.504C73.5717 20.6853 73.6038 20.9733 73.6038 21.368V28.568C73.6038 29.08 73.5717 29.4853 73.5078 29.784C73.4544 30.072 73.3424 30.28 73.1718 30.408C73.0011 30.536 72.7451 30.6267 72.4037 30.68V31C72.5744 30.9787 72.7878 30.968 73.0437 30.968C73.2998 30.9573 73.5504 30.952 73.7958 30.952C74.0837 30.952 74.3931 30.9573 74.7237 30.968C75.0544 30.968 75.3211 30.9787 75.5238 31V30.68C75.0544 30.6267 74.7077 30.536 74.4837 30.408C74.2704 30.2693 74.1318 30.0453 74.0677 29.736C74.0038 29.416 73.9717 28.9627 73.9717 28.376V22.232L80.9157 31.032C81.0651 31.0213 81.2038 31.016 81.3317 31.016C81.4704 31.016 81.6038 31.0213 81.7318 31.032V22.104C81.7318 21.5813 81.7584 21.176 81.8118 20.888C81.8757 20.6 81.9931 20.392 82.1637 20.264C82.3344 20.1253 82.5904 20.0347 82.9317 19.992ZM89.6381 22.936C89.0515 22.648 88.3688 22.504 87.5901 22.504C86.8328 22.504 86.1555 22.648 85.5581 22.936C84.9715 23.224 84.5075 23.688 84.1661 24.328C83.8355 24.968 83.6701 25.816 83.6701 26.872C83.6701 27.928 83.8355 28.776 84.1661 29.416C84.5075 30.0453 84.9715 30.504 85.5581 30.792C86.1555 31.08 86.8328 31.224 87.5901 31.224C88.3688 31.224 89.0515 31.08 89.6381 30.792C90.2248 30.504 90.6835 30.0453 91.0141 29.416C91.3448 28.776 91.5101 27.928 91.5101 26.872C91.5101 25.816 91.3448 24.968 91.0141 24.328C90.6835 23.688 90.2248 23.224 89.6381 22.936ZM86.5181 23.784C86.8061 23.144 87.1635 22.824 87.5901 22.824C88.0275 22.824 88.3848 23.144 88.6621 23.784C88.9501 24.4133 89.0941 25.4427 89.0941 26.872C89.0941 28.3013 88.9501 29.3307 88.6621 29.96C88.3848 30.5893 88.0275 30.904 87.5901 30.904C87.1635 30.904 86.8061 30.5893 86.5181 29.96C86.2301 29.3307 86.0861 28.3013 86.0861 26.872C86.0861 25.4427 86.2301 24.4133 86.5181 23.784ZM96.1619 23.064V22.728C95.8419 22.7493 95.4952 22.7707 95.1219 22.792C94.7592 22.8133 94.4125 22.824 94.0819 22.824C93.6445 22.824 93.2392 22.8187 92.8659 22.808C92.5032 22.7867 92.1512 22.76 91.8099 22.728V23.064C91.9272 23.064 92.0712 23.1067 92.2419 23.192C92.4232 23.2773 92.5885 23.5333 92.7379 23.96L95.2659 31.032C95.4472 31.0213 95.6232 31.016 95.7939 31.016C95.9645 31.016 96.1352 31.0213 96.3059 31.032L98.0835 25.0949L100.258 31.032C100.429 31.0213 100.599 31.016 100.77 31.016C100.951 31.016 101.127 31.0213 101.298 31.032L103.426 24.424C103.586 23.944 103.757 23.608 103.938 23.416C104.119 23.224 104.311 23.1013 104.514 23.048V22.728C104.375 22.7387 104.189 22.7493 103.954 22.76C103.73 22.7707 103.511 22.776 103.298 22.776H102.786C102.594 22.7653 102.397 22.76 102.194 22.76C102.002 22.7493 101.821 22.7387 101.65 22.728V23.048C102.013 23.08 102.301 23.1867 102.514 23.368C102.727 23.5493 102.855 23.8213 102.898 24.184C102.941 24.5467 102.871 25.0213 102.69 25.608L101.674 28.8225L99.6019 22.712C99.4099 22.712 99.2125 22.7173 99.0099 22.728C98.8179 22.728 98.6259 22.7227 98.4339 22.712L96.6974 28.4854L95.2499 23.96C95.1539 23.672 95.1325 23.464 95.1859 23.336C95.2499 23.208 95.3672 23.1333 95.5379 23.112C95.7192 23.08 95.9272 23.064 96.1619 23.064Z" fill="#0B0C0C"/>
</svg>
