<svg width="69" height="19" viewBox="0 0 69 19" fill="none" xmlns="http://www.w3.org/2000/svg">
<path d="M15.75 17L12.125 13.375M14.0833 8.66667C14.0833 12.3486 11.0986 15.3333 7.41667 15.3333C3.73477 15.3333 0.75 12.3486 0.75 8.66667C0.75 4.98477 3.73477 2 7.41667 2C11.0986 2 14.0833 4.98477 14.0833 8.66667Z" stroke="#0B0C0C" stroke-width="1.5" stroke-linecap="round" stroke-linejoin="round"/>
<path d="M25.75 0.75H29.0833L31.3167 11.9083C31.3929 12.292 31.6016 12.6366 31.9063 12.8819C32.211 13.1272 32.5922 13.2575 32.9833 13.25H41.0833C41.4744 13.2575 41.8557 13.1272 42.1604 12.8819C42.4651 12.6366 42.6738 12.292 42.75 11.9083L44.0833 4.91667H29.9167M33.25 17.4167C33.25 17.8769 32.8769 18.25 32.4167 18.25C31.9564 18.25 31.5833 17.8769 31.5833 17.4167C31.5833 16.9564 31.9564 16.5833 32.4167 16.5833C32.8769 16.5833 33.25 16.9564 33.25 17.4167ZM42.4167 17.4167C42.4167 17.8769 42.0436 18.25 41.5833 18.25C41.1231 18.25 40.75 17.8769 40.75 17.4167C40.75 16.9564 41.1231 16.5833 41.5833 16.5833C42.0436 16.5833 42.4167 16.9564 42.4167 17.4167Z" stroke="#0B0C0C" stroke-width="1.5" stroke-linecap="round" stroke-linejoin="round"/>
<path d="M67.4166 17V15.3333C67.4166 14.4493 67.0654 13.6014 66.4403 12.9763C65.8152 12.3512 64.9673 12 64.0833 12H57.4166C56.5325 12 55.6847 12.3512 55.0596 12.9763C54.4344 13.6014 54.0833 14.4493 54.0833 15.3333V17M64.0833 5.33333C64.0833 7.17428 62.5909 8.66667 60.7499 8.66667C58.909 8.66667 57.4166 7.17428 57.4166 5.33333C57.4166 3.49238 58.909 2 60.7499 2C62.5909 2 64.0833 3.49238 64.0833 5.33333Z" stroke="#0B0C0C" stroke-width="1.5" stroke-linecap="round" stroke-linejoin="round"/>
</svg>
